<?xml version="1.0" encoding="UTF-8" standalone="no"?><!-- Generator: Gravit.io --><svg xmlns="http://www.w3.org/2000/svg" xmlns:xlink="http://www.w3.org/1999/xlink" style="isolation:isolate" viewBox="0 0 358 363" width="358pt" height="363pt"><defs><clipPath id="_clipPath_vgqZxHq0QIKRwkpa7yUdgAnj4JHyfXVx"><rect width="358" height="363"/></clipPath></defs><g clip-path="url(#_clipPath_vgqZxHq0QIKRwkpa7yUdgAnj4JHyfXVx)"><path d=" M 150 218 L 130 250 C 127.285 257.042 127.285 263.958 130 271 C 132.842 278.371 137.828 283.689 145 287 L 145 263 L 163 235 L 150 218 Z " fill="rgb(255,255,255)" vector-effect="non-scaling-stroke" stroke-width="1" stroke="rgb(255,255,255)" stroke-linejoin="miter" stroke-linecap="square" stroke-miterlimit="3"/><path d=" M 0 33 L 20 33 L 93 33 L 215 230 C 222.665 240.83 224.738 253.269 221 266 C 219.305 271.771 217.409 276.817 213 281 C 210.004 283.843 206.918 285.694 203 287 L 68 78 L 68 287 C 72.061 297.91 81.401 305.008 93 306 C 94.753 306.15 96.247 306.15 98 306 L 114 306 L 114 314 L 0 314 L 0 306 L 20 306 C 32.445 308.187 44.303 299.521 46 287 C 46.284 284.905 46.284 283.095 46 281 L 46 78 C 50.412 60.763 37.75 43.231 20 42 C 18.597 41.903 17.403 41.903 16 42 L 0 42 L 0 33 Z " fill="rgb(255,255,255)" vector-effect="non-scaling-stroke" stroke-width="1" stroke="rgb(255,255,255)" stroke-linejoin="miter" stroke-linecap="square" stroke-miterlimit="3"/><path d=" M 358 33 L 334 33 L 266 33 L 182 167 L 195 187 L 266 78 L 266 281 C 265.519 294.317 255.286 304.976 242 306 C 240.597 306.108 239.403 306.108 238 306 L 220 306 L 220 314 L 358 314 L 358 306 L 336 306 C 322.883 304.492 312.972 294.168 312 281 C 311.896 279.597 311.896 278.403 312 277 L 312 78 C 307.647 61.984 317.762 45.432 334 42 C 338.155 41.122 341.845 41.122 346 42 L 358 42" fill="rgb(255,255,255)" vector-effect="non-scaling-stroke" stroke-width="1" stroke="rgb(255,255,255)" stroke-linejoin="miter" stroke-linecap="square" stroke-miterlimit="3"/><path d=" M 106 0 L 130 0 L 215 0 L 238 0 L 238 5 L 215 5 C 210.397 5.505 206.6 7.087 203 10 C 195.993 15.669 193.024 24.206 195 33 L 195 137 L 179 160 L 150 114 L 150 33 C 151.366 24.015 148.101 15.671 141 10 C 137.649 7.323 134.22 5.765 130 5 L 106 5 L 106 0 Z " fill="rgb(109,108,109)" vector-effect="non-scaling-stroke" stroke-width="1" stroke="rgb(108,108,108)" stroke-linejoin="miter" stroke-linecap="square" stroke-miterlimit="3"/><path d=" M 166 240 L 195 287 L 195 330 C 195.795 336.052 198.417 340.969 203 345 C 207.874 349.287 213.515 351.278 220 351 L 238 351 L 238 363 L 106 363 L 106 351 L 130 351 C 134.684 350.087 138.459 348.199 142 345 C 146.522 340.915 149.127 336.031 150 330 L 150 263 L 166 240 Z " fill="rgb(108,108,108)" vector-effect="non-scaling-stroke" stroke-width="1" stroke="rgb(108,108,108)" stroke-linejoin="miter" stroke-linecap="square" stroke-miterlimit="3"/></g></svg>